<?xml version="1.0" encoding="utf-8"?>
<!-- Generator: Adobe Illustrator 16.0.0, SVG Export Plug-In . SVG Version: 6.00 Build 0)  -->
<!DOCTYPE svg PUBLIC "-//W3C//DTD SVG 1.1//EN" "http://www.w3.org/Graphics/SVG/1.1/DTD/svg11.dtd">
<svg version="1.1" id="Layer_1" xmlns="http://www.w3.org/2000/svg" xmlns:xlink="http://www.w3.org/1999/xlink" x="0px" y="0px"
	 width="35.833px" height="12.875px" viewBox="0 0 35.833 12.875" enable-background="new 0 0 35.833 12.875" xml:space="preserve">
<g>
	<line fill="none" stroke="#314457" stroke-width="2" stroke-miterlimit="10" x1="3.948" y1="5.747" x2="8.161" y2="10.052"/>
	<path fill="#314457" d="M11.875,6.438v3.938c0,0.827-0.673,1.5-1.5,1.5H2.5c-0.827,0-1.5-0.673-1.5-1.5V2.5C1,1.673,1.673,1,2.5,1
		h7.875c0.557,0,1.038,0.309,1.297,0.76V1.747h1.075C12.425,0.738,11.489,0,10.375,0H2.5C1.122,0,0,1.122,0,2.5v7.875
		c0,1.378,1.122,2.5,2.5,2.5h7.875c1.378,0,2.5-1.122,2.5-2.5V6.438H11.875z"/>
	<line fill="none" stroke="#314457" stroke-width="2" stroke-miterlimit="10" x1="6.801" y1="10.052" x2="14.988" y2="1.739"/>
</g>
<line fill="none" stroke="#BD2C30" stroke-width="2" stroke-miterlimit="10" x1="23.948" y1="5.747" x2="28.161" y2="10.052"/>
<path fill="#BD2C30" d="M31.875,6.438v3.938c0,0.827-0.673,1.5-1.5,1.5H22.5c-0.827,0-1.5-0.673-1.5-1.5V2.5
	C21,1.673,21.673,1,22.5,1h7.875c0.557,0,1.038,0.309,1.297,0.76V1.747h1.075C32.425,0.738,31.489,0,30.375,0H22.5
	C21.122,0,20,1.122,20,2.5v7.875c0,1.378,1.122,2.5,2.5,2.5h7.875c1.378,0,2.5-1.122,2.5-2.5V6.438H31.875z"/>
<line fill="none" stroke="#BD2C30" stroke-width="2" stroke-miterlimit="10" x1="26.801" y1="10.052" x2="34.988" y2="1.739"/>
</svg>
