<?xml version="1.0" encoding="utf-8"?>
<!-- Generator: Adobe Illustrator 16.0.0, SVG Export Plug-In . SVG Version: 6.00 Build 0)  -->
<!DOCTYPE svg PUBLIC "-//W3C//DTD SVG 1.1//EN" "http://www.w3.org/Graphics/SVG/1.1/DTD/svg11.dtd">
<svg version="1.1" id="Layer_1" xmlns="http://www.w3.org/2000/svg" xmlns:xlink="http://www.w3.org/1999/xlink" x="0px" y="0px"
	 width="54.167px" height="43.833px" viewBox="0 0 54.167 43.833" enable-background="new 0 0 54.167 43.833" xml:space="preserve">
<polygon fill-rule="evenodd" clip-rule="evenodd" fill="#1D1D72" points="3.167,11.167 3.167,11.167 3.167,11.167 3.167,11.167 
	3.167,15.5 3.167,15.5 3.167,15.5 3.167,15.5 "/>
<path fill-rule="evenodd" clip-rule="evenodd" fill="none" stroke="#BD2C30" stroke-width="3" stroke-miterlimit="10" d="
	M52.333,38.293c0,1.953-1.986,3.541-4.441,3.541H6.44C3.988,41.834,2,40.247,2,38.293V5.541C2,3.586,3.988,2,6.44,2h41.451
	c2.455,0,4.441,1.585,4.441,3.541V38.293z"/>
<rect x="7.167" y="26.167" fill-rule="evenodd" clip-rule="evenodd" fill="#BD2C30" width="6.333" height="9.834"/>
<rect x="18.056" y="12" fill-rule="evenodd" clip-rule="evenodd" fill="#BD2C30" width="6.667" height="24"/>
<rect x="29.111" y="18.667" fill-rule="evenodd" clip-rule="evenodd" fill="#BD2C30" width="6.667" height="17.334"/>
<rect x="40.5" y="7.833" fill-rule="evenodd" clip-rule="evenodd" fill="#BD2C30" width="6" height="28.167"/>
</svg>
