<?xml version="1.0" encoding="utf-8"?>
<!-- Generator: Adobe Illustrator 16.0.0, SVG Export Plug-In . SVG Version: 6.00 Build 0)  -->
<!DOCTYPE svg PUBLIC "-//W3C//DTD SVG 1.1//EN" "http://www.w3.org/Graphics/SVG/1.1/DTD/svg11.dtd">
<svg version="1.1" id="Layer_1" xmlns="http://www.w3.org/2000/svg" xmlns:xlink="http://www.w3.org/1999/xlink" x="0px" y="0px"
	 width="152.667px" height="34px" viewBox="0 0 152.667 34" enable-background="new 0 0 152.667 34" xml:space="preserve">
<path fill="none" stroke="#FFFFFF" stroke-width="3.3024" stroke-miterlimit="10" d="M25.833,15.333c0,2.917-0.585,5.936-2.5,7.844
	c-3,2.989-7.333,3.989-7.333,3.989s-0.996-5.564-3.5-8.417c-3.525-4.015-9-3.583-9-3.583s0.444-3.272,2.333-5.833
	c1.8-2.44,5.417-4.305,8.809-4.305C22,5.028,25.833,9.804,25.833,15.333z"/>
<g>
	<path fill="#FFFFFF" d="M47.477,27.166l-0.914-3.479h-6.03l-0.939,3.479h-5.51l6.056-18.637h6.69l6.132,18.637H47.477z
		 M45.522,19.574l-0.8-3.047c-0.187-0.677-0.413-1.553-0.679-2.628c-0.268-1.075-0.443-1.845-0.527-2.311
		c-0.076,0.432-0.227,1.143-0.451,2.133c-0.224,0.99-0.721,2.941-1.491,5.853H45.522z"/>
	<path fill="#FFFFFF" d="M63.752,27.166V19.32c0-0.957-0.138-1.678-0.412-2.165c-0.275-0.487-0.718-0.73-1.327-0.73
		c-0.838,0-1.442,0.334-1.815,1.003s-0.559,1.815-0.559,3.44v6.297h-4.964V12.782h3.745l0.622,1.777h0.292
		c0.424-0.677,1.01-1.185,1.758-1.523c0.749-0.338,1.61-0.508,2.584-0.508c1.591,0,2.829,0.461,3.713,1.384
		c0.885,0.922,1.327,2.222,1.327,3.897v9.356H63.752z"/>
	<path fill="#FFFFFF" d="M81.145,27.166V19.32c0-1.93-0.571-2.895-1.714-2.895c-0.813,0-1.411,0.341-1.796,1.022
		c-0.386,0.681-0.578,1.813-0.578,3.396v6.322h-4.964V7.412h4.964v2.806c0,1.27-0.067,2.717-0.203,4.342h0.229
		c0.474-0.745,1.037-1.27,1.688-1.574s1.409-0.457,2.272-0.457c1.608,0,2.858,0.463,3.752,1.39c0.893,0.927,1.339,2.224,1.339,3.891
		v9.356H81.145z"/>
	<path fill="#FFFFFF" d="M89.41,9.202c0-0.745,0.207-1.299,0.622-1.663s1.083-0.546,2.006-0.546s1.596,0.186,2.019,0.559
		s0.635,0.922,0.635,1.65c0,1.456-0.885,2.184-2.653,2.184C90.286,11.386,89.41,10.658,89.41,9.202z M94.5,27.166h-4.964V12.782
		H94.5V27.166z"/>
	<path fill="#FFFFFF" d="M111.703,19.942c0,2.353-0.633,4.188-1.897,5.503c-1.266,1.316-3.037,1.974-5.313,1.974
		c-2.184,0-3.921-0.673-5.212-2.019c-1.29-1.346-1.936-3.166-1.936-5.459c0-2.344,0.633-4.166,1.898-5.465
		c1.265-1.299,3.04-1.949,5.325-1.949c1.413,0,2.662,0.3,3.745,0.901s1.919,1.462,2.508,2.583
		C111.409,17.135,111.703,18.444,111.703,19.942z M102.384,19.942c0,1.236,0.165,2.177,0.495,2.825s0.885,0.971,1.663,0.971
		c0.771,0,1.313-0.324,1.632-0.971c0.316-0.647,0.476-1.589,0.476-2.825c0-1.227-0.161-2.154-0.482-2.78s-0.872-0.939-1.65-0.939
		c-0.762,0-1.308,0.311-1.638,0.933S102.384,18.707,102.384,19.942z"/>
	<path fill="#FFFFFF" d="M123.217,12.528c0.432,0,0.842,0.034,1.231,0.102l0.279,0.051l-0.444,4.685
		c-0.406-0.102-0.969-0.152-1.688-0.152c-1.083,0-1.87,0.248-2.361,0.743s-0.736,1.208-0.736,2.139v7.071h-4.964V12.782h3.694
		l0.774,2.298h0.241c0.415-0.762,0.992-1.377,1.732-1.847C121.717,12.763,122.464,12.528,123.217,12.528z"/>
	<path fill="#FFFFFF" d="M136.116,27.166l-0.952-1.904h-0.102c-0.669,0.83-1.35,1.396-2.044,1.701s-1.591,0.457-2.691,0.457
		c-1.354,0-2.421-0.406-3.199-1.219s-1.168-1.955-1.168-3.428c0-1.532,0.533-2.672,1.6-3.421s2.611-1.17,4.634-1.263l2.399-0.076
		V17.81c0-1.185-0.584-1.777-1.752-1.777c-1.05,0-2.383,0.355-3.999,1.066l-1.435-3.275c1.676-0.863,3.792-1.295,6.348-1.295
		c1.845,0,3.273,0.457,4.285,1.371c1.011,0.914,1.517,2.192,1.517,3.834v9.433H136.116z M132.434,23.916
		c0.601,0,1.115-0.19,1.543-0.571c0.427-0.381,0.641-0.876,0.641-1.485v-1.117l-1.143,0.051c-1.634,0.059-2.45,0.66-2.45,1.803
		C131.025,23.476,131.495,23.916,132.434,23.916z"/>
</g>
</svg>
